<?xml version="1.0" encoding="UTF-8" standalone="no"?>
<!-- Created with Inkscape (http://www.inkscape.org/) -->

<svg
   xmlns:osb="http://www.openswatchbook.org/uri/2009/osb"
   xmlns:dc="http://purl.org/dc/elements/1.1/"
   xmlns:cc="http://creativecommons.org/ns#"
   xmlns:rdf="http://www.w3.org/1999/02/22-rdf-syntax-ns#"
   xmlns:svg="http://www.w3.org/2000/svg"
   xmlns="http://www.w3.org/2000/svg"
   xmlns:sodipodi="http://sodipodi.sourceforge.net/DTD/sodipodi-0.dtd"
   xmlns:inkscape="http://www.inkscape.org/namespaces/inkscape"
   width="210mm"
   height="297mm"
   id="svg2"
   version="1.1"
   inkscape:version="0.48.3.1 r9886"
   sodipodi:docname="Documento nuevo 1">
  <defs
     id="defs4">
    <linearGradient
       id="linearGradient5231"
       osb:paint="solid">
      <stop
         style="stop-color:#00c435;stop-opacity:1;"
         offset="0"
         id="stop5233" />
    </linearGradient>
    <linearGradient
       id="linearGradient3781">
      <stop
         style="stop-color:#07cc07;stop-opacity:1;"
         offset="0"
         id="stop3783" />
      <stop
         id="stop3789"
         offset="0.78879088"
         style="stop-color:#1fc435;stop-opacity:0.49803922;" />
      <stop
         style="stop-color:#0fc435;stop-opacity:0.24705882;"
         offset="1"
         id="stop3791" />
      <stop
         style="stop-color:#00c435;stop-opacity:0;"
         offset="1"
         id="stop3785" />
    </linearGradient>
    <filter
       inkscape:collect="always"
       id="filter5328">
      <feGaussianBlur
         inkscape:collect="always"
         stdDeviation="4.3287769"
         id="feGaussianBlur5330" />
    </filter>
    <mask
       maskUnits="userSpaceOnUse"
       id="mask5346">
      <path
         sodipodi:nodetypes="ccssscssssssssssssssssssssscccsssssscsssssssssssssssssccscssssscccccsssscsssssssssssssssssccssssssssssscsssssscccssscssscssssssssssssssssssssssssssscccssssss"
         inkscape:connector-curvature="0"
         id="path5348"
         d="m 365.58503,385.44441 c -1.8887,-0.019 -4.06703,-0.007 -6.5625,0.0312 -11.6736,0.17966 -15.54155,0.62722 -19.5,2.1875 -3.06161,1.20677 -7.32489,1.9375 -11.28125,1.9375 -8.55617,0 -18.97788,2.1577 -31.0625,6.4375 -5.5,1.94784 -10.75207,3.5565 -11.6875,3.5625 -6.14856,0.0365 -12.19884,2.43141 -17.3125,6.90625 -2.97725,2.60533 -7.13509,5.27874 -9.21875,5.90625 -10.97856,3.30628 -32.11078,21.04243 -37.0625,31.125 -2.60686,5.30801 -2.7308,6.21106 -2.6875,20.5625 0.0667,22.13401 2.37649,30.81086 9.03125,33.96875 4.61124,2.18818 22.21397,3.88982 37.625,3.65625 13.17845,-0.19974 12.11962,-0.87114 13.34375,8.875 0.89266,7.10708 3.96006,15.2328 7.15625,19.03125 3.92793,4.66808 10.20036,7.80806 19.90625,9.9375 10.76353,2.36149 21.9914,2.17933 25.9375,-0.40625 1.46016,-0.95674 5.21196,-2.56564 8.34375,-3.59375 3.13179,-1.02811 9.95296,-4.22169 15.15625,-7.09375 5.20328,-2.87206 14.64375,-7.7241 20.96875,-10.78125 14.31759,-6.9203 15.60267,-6.95137 44.46875,-1.09375 22.26804,4.51871 27.86168,6.09892 30.6875,8.65625 2.34016,2.11782 5.38543,1.2427 11.1875,-3.1875 11.78896,-9.00155 16.74461,-35.0375 10.28125,-53.96875 -5.11057,-14.96889 -18.19076,-34.47875 -35,-52.1875 -9.22469,-9.71832 -10.26651,-10.47637 -23.875,-17.5625 -13.80542,-7.18866 -14.59838,-7.48455 -26.125,-9.09375 -6.53863,-0.91284 -12.53317,-2.16571 -13.3125,-2.8125 -0.72916,-0.60514 -3.74016,-0.94294 -9.40625,-1 z m -0.84375,15.3125 c 3.67003,-0.0933 5.44463,0.35442 7.71875,1.78125 6.04249,3.79118 7.76561,4.16358 1.99107,6.79464 -2.05097,0.93449 -4.02434,0.0568 -7.74553,-1.58928 -5.45148,-2.41145 -10.81256,0.3995 -14.59822,2.35714 -2.05707,1.06375 -3.97497,3.41515 -4.74553,6.27679 -1.03157,3.83096 10.22079,3.58901 1.59821,7.78571 -9.88331,4.81031 -10.09292,5.23002 -11.99554,2.9375 -0.99379,-1.19741 -3.83188,-2.83518 -2.79464,-5.33929 1.15611,-2.79111 -7.11369,-3.28392 -8.77678,-4.5 -5.35858,-3.91829 -17.76478,2.22271 -19.15179,9.61608 -0.84688,4.51426 -1.54525,4.56696 -11.24107,4.56696 -12.44688,0 -13.91341,4.31611 -13.14732,12.28571 0.86783,9.02784 -2.87215,8.22768 -7.34375,8.22768 -5.07421,0 0.94767,7.32928 0.23214,15.89286 -0.33271,3.982 -0.94048,7.8125 -1.375,8.5 -0.88194,1.3954 -3.31605,1.67654 -4.0625,0.46875 -1.67525,-2.71061 -3.80758,-18.30124 -3.28125,-23.9375 0.70547,-7.55473 2.76631,-11.4423 7.90625,-14.84375 2.08862,-1.38218 5.40119,-4.75261 7.375,-7.5 4.29287,-5.97537 5.30979,-6.54886 13.15625,-7.8125 5.22885,-0.84208 7.23878,-1.88817 14.59375,-7.5 10.44078,-7.96629 14.89292,-9.53888 21.46875,-7.625 2.56486,0.7465 6.68125,1.53013 9.15625,1.75 3.97219,0.35289 5.2582,-0.12594 10.875,-3.90625 5.4682,-3.6803 7.22625,-4.32897 12.5,-4.625 0.60878,-0.0342 1.16321,-0.0492 1.6875,-0.0625 z m 47.125,18.46875 c 1.39779,-0.0417 2.69853,0.0601 3.6875,0.34375 7.02042,2.01342 12.125,8.24677 12.125,14.8125 0,4.21497 -2.12816,5.70581 -6.125,4.3125 -3.90615,-1.36169 -3.44263,-1.40112 -5.3125,0.46875 -2.33637,2.33636 -1.91165,7.64529 0.9375,11.84375 3.45803,5.0957 3.20914,7.75326 -1.09375,11.53125 -5.006,4.39533 -8.00302,3.89765 -11.40625,-1.9375 l -2.625,-4.5 -17.4375,0 -17.4375,0 -0.3125,2.84375 c -0.23276,2.03577 0.57619,3.99846 2.8125,6.78125 5.24543,6.52723 5.02555,14.06636 -0.4375,15.4375 -3.66144,0.91897 -4.50294,-6.81604 -7.30804,-12.74554 -2.69569,-5.69822 -3.13765,-9.02307 -8.64732,-10.125 -2.51013,-0.50203 -11.90017,1.07743 -15.21428,4.07143 -4.67166,4.22056 -11.17219,3.19297 -17.10715,0.16518 -4.48355,-2.28734 -7.92199,0.96294 -10.5491,2.88393 -0.98474,0.72006 -5.83677,6.6147 -7.29465,9.60714 -2.36503,4.85445 -4.92692,2.36669 -8.94196,3.53572 -8.38457,2.44128 -3.53961,6.91214 -5.03125,10.48214 -0.78661,1.88261 -2.45714,4.13822 -3.6875,5 -1.23037,0.86179 -3.30823,1.5625 -4.625,1.5625 -2.04054,0 -2.27054,-0.33229 -1.625,-2.25 0.41657,-1.2375 1.03993,-6.45628 1.375,-11.59375 0.53582,-8.21528 0.89245,-9.57092 2.96875,-11.25 2.58597,-2.09124 6.59183,-2.44715 10.5625,-0.9375 3.64287,1.38502 4.66985,0.69412 9.90625,-6.4375 8.85437,-12.05904 10.42221,-9.22736 18.39286,-6.83929 2.72786,0.81729 8.20864,-0.29973 9.32143,1.65625 0.91631,1.61061 3.84901,-1.35121 4.34821,-1.34821 0.49919,0.003 3.19919,-1.73984 6,-3.875 10.00442,-7.6269 9.96979,-7.625 31.09375,-7.625 l 19,0 6,-4.90625 c 8.0068,-6.52991 8.23671,-7.05799 5.46875,-12.125 -1.26383,-2.31354 -2.01119,-4.90648 -1.6875,-5.75 0.60501,-1.57664 5.71289,-2.96862 9.90625,-3.09375 z m -157.65625,31.65625 c 1.79664,0.0847 2.46828,3.39435 2.46875,10.59375 5.4e-4,8.31435 0.1463,8.86097 4,15.125 2.19938,3.575 3.99969,7.5125 4,8.75 4.7e-4,1.88067 -0.54339,2.25 -3.3125,2.25 -5.73538,0 -10.66187,-7.1104 -14.125,-20.40625 -1.73506,-6.66137 -0.79016,-10.28521 3.78125,-14.5 1.32386,-1.22058 2.37084,-1.851 3.1875,-1.8125 z m 176.75,34.40625 c 3.81074,0.007 6.12106,0.7124 11.21875,3.125 9.21326,4.36039 11.5,6.57466 11.5,11.15625 0,1.99413 -0.5275,4.1525 -1.1875,4.8125 -1.77373,1.77373 -3.70817,1.42846 -9.8125,-1.78125 -3.025,-1.59057 -7.525,-3.1944 -10,-3.5625 -5.93998,-0.88344 -8.84589,-2.82346 -10.65625,-7.15625 -2.03155,-4.86219 -0.49759,-6.26132 7.21875,-6.5625 0.61863,-0.0241 1.17436,-0.0323 1.71875,-0.0312 z m -67.84375,11.3125 c 4.52118,0 8.73014,2.0851 10.90625,5.40625 0.90668,1.38377 1.65625,2.71368 1.65625,2.96875 0,1.2925 -3.40119,3.62 -5.3125,3.625 -4.09167,0.0105 -9.52453,2.03847 -14.375,5.375 -6.70166,4.60993 -11.97343,0.68018 -18.91518,-1.09821 -7.46009,-1.91119 -9.38342,-0.42978 -18.08036,7.02678 -4.74154,4.0653 -6.67955,5.84229 -9.5,5.83929 -4.44501,-0.005 -5.22601,0.41275 -10.12946,-5.23661 -2.10503,-2.42526 -4.95385,-5.58423 -6.3125,-7.03125 -2.27653,-2.42461 -2.33581,-2.75794 -0.84375,-4.25 0.98311,-0.98311 3.26827,-1.625 5.84375,-1.625 3.41434,0 4.82536,0.59832 7.15625,3.03125 5.81129,6.06567 14.58378,6.1436 15.78125,0.15625 1.28936,-6.4468 6.63752,-7.88964 15.21875,-4.09375 6.56387,2.90351 13.01081,2.21706 16.21875,-1.75 6.38018,-7.88998 6.95788,-8.34375 10.6875,-8.34375 z m 40.75,21.34821 c -5.99495,-0.0894 -13.84454,0.51182 -25.86607,6.21429 -11.87099,5.63108 -11.89111,13.4375 -7.97768,13.4375 2.37777,0 4.45906,3.31141 7.1875,11.5 4.54197,13.63139 9.2904,20.65959 16.75,24.75 4.31575,2.36651 8.68015,2.20871 20.34375,-0.75 15.63871,-3.96709 22.85097,-7.91128 32.3125,-17.65625 8.09327,-8.33573 12.51265,-15.25143 11.875,-18.5625 -0.65728,-3.41298 -9.0017,-8.62594 -32.77679,-13.90625 -11.98372,-2.66151 -17.18547,-4.95723 -21.84821,-5.02679 z m -59.60946,22.74253 c -4.11552,1.84058 -7.82746,5.12628 -8.35929,6.72176 -0.48909,1.46726 10.80069,13.37715 16.28125,17.1875 2.26295,1.57331 5.47604,5.31151 7.40625,8.625 1.87651,3.2213 5.13516,8.575 7.21875,11.875 4.96329,7.86086 6.59968,12.01296 7.4375,18.59375 0.37937,2.97981 1.18522,6.03126 1.78125,6.78125 1.32534,1.6677 10.37726,0.85818 12.25,-1.09375 0.89521,-0.93308 1.04751,-4.06426 0.5625,-11.6875 l 3.62946,-14.72321 -6.62053,-6.125 c -3.762,-1.26309 -6.9325,-7.4611 -10.47322,-12.8884 -1.25585,-1.925 -3.23704,-8.09285 -5.28571,-14.14285 -2.04867,-6.05 -3.39189,-6.53048 -4.63673,-7.06803 -1.05407,-0.45517 -7.27525,-6.04823 -8.83202,-6.04823 -1.55678,0 -3.29194,1.34164 -6.51269,1.99984 -0.57738,0.118 -2.78627,0.62413 -5.84677,1.99287 z"
         style="fill:#ffffff;fill-opacity:1" />
    </mask>
    <filter
       inkscape:collect="always"
       id="filter5418">
      <feGaussianBlur
         inkscape:collect="always"
         stdDeviation="4.346092"
         id="feGaussianBlur5420" />
    </filter>
  </defs>
  <sodipodi:namedview
     id="base"
     pagecolor="#ffffff"
     bordercolor="#666666"
     borderopacity="1.0"
     inkscape:pageopacity="0.0"
     inkscape:pageshadow="2"
     inkscape:zoom="1.4"
     inkscape:cx="293.36274"
     inkscape:cy="597.62759"
     inkscape:document-units="px"
     inkscape:current-layer="layer1"
     showgrid="false"
     inkscape:window-width="1366"
     inkscape:window-height="719"
     inkscape:window-x="0"
     inkscape:window-y="29"
     inkscape:window-maximized="1" />
  <metadata
     id="metadata7">
    <rdf:RDF>
      <cc:Work
         rdf:about="">
        <dc:format>image/svg+xml</dc:format>
        <dc:type
           rdf:resource="http://purl.org/dc/dcmitype/StillImage" />
        <dc:title></dc:title>
      </cc:Work>
    </rdf:RDF>
  </metadata>
  <g
     inkscape:label="Capa 1"
     inkscape:groupmode="layer"
     id="layer1">
    <rect
       style="fill:#064580;fill-opacity:1"
       id="rect3779"
       width="658.61945"
       height="496.99506"
       x="44.446712"
       y="244.24014" />
    <path
       style="fill:#ffffff;fill-opacity:1"
       d="m 365.58503,385.44441 c -1.8887,-0.019 -4.06703,-0.007 -6.5625,0.0312 -11.6736,0.17966 -15.54155,0.62722 -19.5,2.1875 -3.06161,1.20677 -7.32489,1.9375 -11.28125,1.9375 -8.55617,0 -18.97788,2.1577 -31.0625,6.4375 -5.5,1.94784 -10.75207,3.5565 -11.6875,3.5625 -6.14856,0.0365 -12.19884,2.43141 -17.3125,6.90625 -2.97725,2.60533 -7.13509,5.27874 -9.21875,5.90625 -10.97856,3.30628 -32.11078,21.04243 -37.0625,31.125 -2.60686,5.30801 -2.7308,6.21106 -2.6875,20.5625 0.0667,22.13401 2.37649,30.81086 9.03125,33.96875 4.61124,2.18818 22.21397,3.88982 37.625,3.65625 13.17845,-0.19974 12.11962,-0.87114 13.34375,8.875 0.89266,7.10708 3.96006,15.2328 7.15625,19.03125 3.92793,4.66808 10.20036,7.80806 19.90625,9.9375 10.76353,2.36149 21.9914,2.17933 25.9375,-0.40625 1.46016,-0.95674 5.21196,-2.56564 8.34375,-3.59375 3.13179,-1.02811 9.95296,-4.22169 15.15625,-7.09375 5.20328,-2.87206 14.64375,-7.7241 20.96875,-10.78125 14.31759,-6.9203 15.60267,-6.95137 44.46875,-1.09375 22.26804,4.51871 27.86168,6.09892 30.6875,8.65625 2.34016,2.11782 5.38543,1.2427 11.1875,-3.1875 11.78896,-9.00155 16.74461,-35.0375 10.28125,-53.96875 -5.11057,-14.96889 -18.19076,-34.47875 -35,-52.1875 -9.22469,-9.71832 -10.26651,-10.47637 -23.875,-17.5625 -13.80542,-7.18866 -14.59838,-7.48455 -26.125,-9.09375 -6.53863,-0.91284 -12.53317,-2.16571 -13.3125,-2.8125 -0.72916,-0.60514 -3.74016,-0.94294 -9.40625,-1 z m -0.84375,15.3125 c 3.67003,-0.0933 5.44463,0.35442 7.71875,1.78125 6.04249,3.79118 7.76561,4.16358 1.99107,6.79464 -2.05097,0.93449 -4.02434,0.0568 -7.74553,-1.58928 -5.45148,-2.41145 -10.81256,0.3995 -14.59822,2.35714 -2.05707,1.06375 -3.97497,3.41515 -4.74553,6.27679 -1.03157,3.83096 10.22079,3.58901 1.59821,7.78571 -9.88331,4.81031 -10.09292,5.23002 -11.99554,2.9375 -0.99379,-1.19741 -3.83188,-2.83518 -2.79464,-5.33929 1.15611,-2.79111 -7.11369,-3.28392 -8.77678,-4.5 -5.35858,-3.91829 -17.76478,2.22271 -19.15179,9.61608 -0.84688,4.51426 -1.54525,4.56696 -11.24107,4.56696 -12.44688,0 -13.91341,4.31611 -13.14732,12.28571 0.86783,9.02784 -2.87215,8.22768 -7.34375,8.22768 -5.07421,0 0.94767,7.32928 0.23214,15.89286 -0.33271,3.982 -0.94048,7.8125 -1.375,8.5 -0.88194,1.3954 -3.31605,1.67654 -4.0625,0.46875 -1.67525,-2.71061 -3.80758,-18.30124 -3.28125,-23.9375 0.70547,-7.55473 2.76631,-11.4423 7.90625,-14.84375 2.08862,-1.38218 5.40119,-4.75261 7.375,-7.5 4.29287,-5.97537 5.30979,-6.54886 13.15625,-7.8125 5.22885,-0.84208 7.23878,-1.88817 14.59375,-7.5 10.44078,-7.96629 14.89292,-9.53888 21.46875,-7.625 2.56486,0.7465 6.68125,1.53013 9.15625,1.75 3.97219,0.35289 5.2582,-0.12594 10.875,-3.90625 5.4682,-3.6803 7.22625,-4.32897 12.5,-4.625 0.60878,-0.0342 1.16321,-0.0492 1.6875,-0.0625 z m 47.125,18.46875 c 1.39779,-0.0417 2.69853,0.0601 3.6875,0.34375 7.02042,2.01342 12.125,8.24677 12.125,14.8125 0,4.21497 -2.12816,5.70581 -6.125,4.3125 -3.90615,-1.36169 -3.44263,-1.40112 -5.3125,0.46875 -2.33637,2.33636 -1.91165,7.64529 0.9375,11.84375 3.45803,5.0957 3.20914,7.75326 -1.09375,11.53125 -5.006,4.39533 -8.00302,3.89765 -11.40625,-1.9375 l -2.625,-4.5 -17.4375,0 -17.4375,0 -0.3125,2.84375 c -0.23276,2.03577 0.57619,3.99846 2.8125,6.78125 5.24543,6.52723 5.02555,14.06636 -0.4375,15.4375 -3.66144,0.91897 -4.50294,-6.81604 -7.30804,-12.74554 -2.69569,-5.69822 -3.13765,-9.02307 -8.64732,-10.125 -2.51013,-0.50203 -11.90017,1.07743 -15.21428,4.07143 -4.67166,4.22056 -11.17219,3.19297 -17.10715,0.16518 -4.48355,-2.28734 -7.92199,0.96294 -10.5491,2.88393 -0.98474,0.72006 -5.83677,6.6147 -7.29465,9.60714 -2.36503,4.85445 -4.92692,2.36669 -8.94196,3.53572 -8.38457,2.44128 -3.53961,6.91214 -5.03125,10.48214 -0.78661,1.88261 -2.45714,4.13822 -3.6875,5 -1.23037,0.86179 -3.30823,1.5625 -4.625,1.5625 -2.04054,0 -2.27054,-0.33229 -1.625,-2.25 0.41657,-1.2375 1.03993,-6.45628 1.375,-11.59375 0.53582,-8.21528 0.89245,-9.57092 2.96875,-11.25 2.58597,-2.09124 6.59183,-2.44715 10.5625,-0.9375 3.64287,1.38502 4.66985,0.69412 9.90625,-6.4375 8.85437,-12.05904 10.42221,-9.22736 18.39286,-6.83929 2.72786,0.81729 8.20864,-0.29973 9.32143,1.65625 0.91631,1.61061 3.84901,-1.35121 4.34821,-1.34821 0.49919,0.003 3.19919,-1.73984 6,-3.875 10.00442,-7.6269 9.96979,-7.625 31.09375,-7.625 l 19,0 6,-4.90625 c 8.0068,-6.52991 8.23671,-7.05799 5.46875,-12.125 -1.26383,-2.31354 -2.01119,-4.90648 -1.6875,-5.75 0.60501,-1.57664 5.71289,-2.96862 9.90625,-3.09375 z m -157.65625,31.65625 c 1.79664,0.0847 2.46828,3.39435 2.46875,10.59375 5.4e-4,8.31435 0.1463,8.86097 4,15.125 2.19938,3.575 3.99969,7.5125 4,8.75 4.7e-4,1.88067 -0.54339,2.25 -3.3125,2.25 -5.73538,0 -10.66187,-7.1104 -14.125,-20.40625 -1.73506,-6.66137 -0.79016,-10.28521 3.78125,-14.5 1.32386,-1.22058 2.37084,-1.851 3.1875,-1.8125 z m 176.75,34.40625 c 3.81074,0.007 6.12106,0.7124 11.21875,3.125 9.21326,4.36039 11.5,6.57466 11.5,11.15625 0,1.99413 -0.5275,4.1525 -1.1875,4.8125 -1.77373,1.77373 -3.70817,1.42846 -9.8125,-1.78125 -3.025,-1.59057 -7.525,-3.1944 -10,-3.5625 -5.93998,-0.88344 -8.84589,-2.82346 -10.65625,-7.15625 -2.03155,-4.86219 -0.49759,-6.26132 7.21875,-6.5625 0.61863,-0.0241 1.17436,-0.0323 1.71875,-0.0312 z m -67.84375,11.3125 c 4.52118,0 8.73014,2.0851 10.90625,5.40625 0.90668,1.38377 1.65625,2.71368 1.65625,2.96875 0,1.2925 -3.40119,3.62 -5.3125,3.625 -4.09167,0.0105 -9.52453,2.03847 -14.375,5.375 -6.70166,4.60993 -11.97343,0.68018 -18.91518,-1.09821 -7.46009,-1.91119 -9.38342,-0.42978 -18.08036,7.02678 -4.74154,4.0653 -6.67955,5.84229 -9.5,5.83929 -4.44501,-0.005 -5.22601,0.41275 -10.12946,-5.23661 -2.10503,-2.42526 -4.95385,-5.58423 -6.3125,-7.03125 -2.27653,-2.42461 -2.33581,-2.75794 -0.84375,-4.25 0.98311,-0.98311 3.26827,-1.625 5.84375,-1.625 3.41434,0 4.82536,0.59832 7.15625,3.03125 5.81129,6.06567 14.58378,6.1436 15.78125,0.15625 1.28936,-6.4468 6.63752,-7.88964 15.21875,-4.09375 6.56387,2.90351 13.01081,2.21706 16.21875,-1.75 6.38018,-7.88998 6.95788,-8.34375 10.6875,-8.34375 z m 40.75,21.34821 c -5.99495,-0.0894 -13.84454,0.51182 -25.86607,6.21429 -11.87099,5.63108 -11.89111,13.4375 -7.97768,13.4375 2.37777,0 4.45906,3.31141 7.1875,11.5 4.54197,13.63139 9.2904,20.65959 16.75,24.75 4.31575,2.36651 8.68015,2.20871 20.34375,-0.75 15.63871,-3.96709 22.85097,-7.91128 32.3125,-17.65625 8.09327,-8.33573 12.51265,-15.25143 11.875,-18.5625 -0.65728,-3.41298 -9.0017,-8.62594 -32.77679,-13.90625 -11.98372,-2.66151 -17.18547,-4.95723 -21.84821,-5.02679 z m -59.60946,22.74253 c -4.11552,1.84058 -7.82746,5.12628 -8.35929,6.72176 -0.48909,1.46726 10.80069,13.37715 16.28125,17.1875 2.26295,1.57331 5.47604,5.31151 7.40625,8.625 1.87651,3.2213 5.13516,8.575 7.21875,11.875 4.96329,7.86086 6.59968,12.01296 7.4375,18.59375 0.37937,2.97981 1.18522,6.03126 1.78125,6.78125 1.32534,1.6677 10.37726,0.85818 12.25,-1.09375 0.89521,-0.93308 1.04751,-4.06426 0.5625,-11.6875 l 3.62946,-14.72321 -6.62053,-6.125 c -3.762,-1.26309 -6.9325,-7.4611 -10.47322,-12.8884 -1.25585,-1.925 -3.23704,-8.09285 -5.28571,-14.14285 -2.04867,-6.05 -3.39189,-6.53048 -4.63673,-7.06803 -1.05407,-0.45517 -7.27525,-6.04823 -8.83202,-6.04823 -1.55678,0 -3.29194,1.34164 -6.51269,1.99984 -0.57738,0.118 -2.78627,0.62413 -5.84677,1.99287 z"
       id="path2998"
       inkscape:connector-curvature="0"
       sodipodi:nodetypes="ccssscssssssssssssssssssssscccsssssscsssssssssssssssssccscssssscccccsssscsssssssssssssssssccssssssssssscsssssscccssscssscssssssssssssssssssssssssssscccssssss" />
    <path
       sodipodi:nodetypes="ccssscssssssssssssssssssssscccsssssscsssssssssssssssssccscssssscccccsssscsssssssssssssssssccssssssssssscsssssscccssscssscssssssssssssssssssssssssssscccssssss"
       inkscape:connector-curvature="0"
       id="path5237"
       d="m 365.58503,385.44441 c -1.8887,-0.019 -4.06703,-0.007 -6.5625,0.0312 -11.6736,0.17966 -15.54155,0.62722 -19.5,2.1875 -3.06161,1.20677 -7.32489,1.9375 -11.28125,1.9375 -8.55617,0 -18.97788,2.1577 -31.0625,6.4375 -5.5,1.94784 -10.75207,3.5565 -11.6875,3.5625 -6.14856,0.0365 -12.19884,2.43141 -17.3125,6.90625 -2.97725,2.60533 -7.13509,5.27874 -9.21875,5.90625 -10.97856,3.30628 -32.11078,21.04243 -37.0625,31.125 -2.60686,5.30801 -2.7308,6.21106 -2.6875,20.5625 0.0667,22.13401 2.37649,30.81086 9.03125,33.96875 4.61124,2.18818 22.21397,3.88982 37.625,3.65625 13.17845,-0.19974 12.11962,-0.87114 13.34375,8.875 0.89266,7.10708 3.96006,15.2328 7.15625,19.03125 3.92793,4.66808 10.20036,7.80806 19.90625,9.9375 10.76353,2.36149 21.9914,2.17933 25.9375,-0.40625 1.46016,-0.95674 5.21196,-2.56564 8.34375,-3.59375 3.13179,-1.02811 9.95296,-4.22169 15.15625,-7.09375 5.20328,-2.87206 14.64375,-7.7241 20.96875,-10.78125 14.31759,-6.9203 15.60267,-6.95137 44.46875,-1.09375 22.26804,4.51871 27.86168,6.09892 30.6875,8.65625 2.34016,2.11782 5.38543,1.2427 11.1875,-3.1875 11.78896,-9.00155 16.74461,-35.0375 10.28125,-53.96875 -5.11057,-14.96889 -18.19076,-34.47875 -35,-52.1875 -9.22469,-9.71832 -10.26651,-10.47637 -23.875,-17.5625 -13.80542,-7.18866 -14.59838,-7.48455 -26.125,-9.09375 -6.53863,-0.91284 -12.53317,-2.16571 -13.3125,-2.8125 -0.72916,-0.60514 -3.74016,-0.94294 -9.40625,-1 z m -0.84375,15.3125 c 3.67003,-0.0933 5.44463,0.35442 7.71875,1.78125 6.04249,3.79118 7.76561,4.16358 1.99107,6.79464 -2.05097,0.93449 -4.02434,0.0568 -7.74553,-1.58928 -5.45148,-2.41145 -10.81256,0.3995 -14.59822,2.35714 -2.05707,1.06375 -3.97497,3.41515 -4.74553,6.27679 -1.03157,3.83096 10.22079,3.58901 1.59821,7.78571 -9.88331,4.81031 -10.09292,5.23002 -11.99554,2.9375 -0.99379,-1.19741 -3.83188,-2.83518 -2.79464,-5.33929 1.15611,-2.79111 -7.11369,-3.28392 -8.77678,-4.5 -5.35858,-3.91829 -17.76478,2.22271 -19.15179,9.61608 -0.84688,4.51426 -1.54525,4.56696 -11.24107,4.56696 -12.44688,0 -13.91341,4.31611 -13.14732,12.28571 0.86783,9.02784 -2.87215,8.22768 -7.34375,8.22768 -5.07421,0 0.94767,7.32928 0.23214,15.89286 -0.33271,3.982 -0.94048,7.8125 -1.375,8.5 -0.88194,1.3954 -3.31605,1.67654 -4.0625,0.46875 -1.67525,-2.71061 -3.80758,-18.30124 -3.28125,-23.9375 0.70547,-7.55473 2.76631,-11.4423 7.90625,-14.84375 2.08862,-1.38218 5.40119,-4.75261 7.375,-7.5 4.29287,-5.97537 5.30979,-6.54886 13.15625,-7.8125 5.22885,-0.84208 7.23878,-1.88817 14.59375,-7.5 10.44078,-7.96629 14.89292,-9.53888 21.46875,-7.625 2.56486,0.7465 6.68125,1.53013 9.15625,1.75 3.97219,0.35289 5.2582,-0.12594 10.875,-3.90625 5.4682,-3.6803 7.22625,-4.32897 12.5,-4.625 0.60878,-0.0342 1.16321,-0.0492 1.6875,-0.0625 z m 47.125,18.46875 c 1.39779,-0.0417 2.69853,0.0601 3.6875,0.34375 7.02042,2.01342 12.125,8.24677 12.125,14.8125 0,4.21497 -2.12816,5.70581 -6.125,4.3125 -3.90615,-1.36169 -3.44263,-1.40112 -5.3125,0.46875 -2.33637,2.33636 -1.91165,7.64529 0.9375,11.84375 3.45803,5.0957 3.20914,7.75326 -1.09375,11.53125 -5.006,4.39533 -8.00302,3.89765 -11.40625,-1.9375 l -2.625,-4.5 -17.4375,0 -17.4375,0 -0.3125,2.84375 c -0.23276,2.03577 0.57619,3.99846 2.8125,6.78125 5.24543,6.52723 5.02555,14.06636 -0.4375,15.4375 -3.66144,0.91897 -4.50294,-6.81604 -7.30804,-12.74554 -2.69569,-5.69822 -3.13765,-9.02307 -8.64732,-10.125 -2.51013,-0.50203 -11.90017,1.07743 -15.21428,4.07143 -4.67166,4.22056 -11.17219,3.19297 -17.10715,0.16518 -4.48355,-2.28734 -7.92199,0.96294 -10.5491,2.88393 -0.98474,0.72006 -5.83677,6.6147 -7.29465,9.60714 -2.36503,4.85445 -4.92692,2.36669 -8.94196,3.53572 -8.38457,2.44128 -3.53961,6.91214 -5.03125,10.48214 -0.78661,1.88261 -2.45714,4.13822 -3.6875,5 -1.23037,0.86179 -3.30823,1.5625 -4.625,1.5625 -2.04054,0 -2.27054,-0.33229 -1.625,-2.25 0.41657,-1.2375 1.03993,-6.45628 1.375,-11.59375 0.53582,-8.21528 0.89245,-9.57092 2.96875,-11.25 2.58597,-2.09124 6.59183,-2.44715 10.5625,-0.9375 3.64287,1.38502 4.66985,0.69412 9.90625,-6.4375 8.85437,-12.05904 10.42221,-9.22736 18.39286,-6.83929 2.72786,0.81729 8.20864,-0.29973 9.32143,1.65625 0.91631,1.61061 3.84901,-1.35121 4.34821,-1.34821 0.49919,0.003 3.19919,-1.73984 6,-3.875 10.00442,-7.6269 9.96979,-7.625 31.09375,-7.625 l 19,0 6,-4.90625 c 8.0068,-6.52991 8.23671,-7.05799 5.46875,-12.125 -1.26383,-2.31354 -2.01119,-4.90648 -1.6875,-5.75 0.60501,-1.57664 5.71289,-2.96862 9.90625,-3.09375 z m -157.65625,31.65625 c 1.79664,0.0847 2.46828,3.39435 2.46875,10.59375 5.4e-4,8.31435 0.1463,8.86097 4,15.125 2.19938,3.575 3.99969,7.5125 4,8.75 4.7e-4,1.88067 -0.54339,2.25 -3.3125,2.25 -5.73538,0 -10.66187,-7.1104 -14.125,-20.40625 -1.73506,-6.66137 -0.79016,-10.28521 3.78125,-14.5 1.32386,-1.22058 2.37084,-1.851 3.1875,-1.8125 z m 176.75,34.40625 c 3.81074,0.007 6.12106,0.7124 11.21875,3.125 9.21326,4.36039 11.5,6.57466 11.5,11.15625 0,1.99413 -0.5275,4.1525 -1.1875,4.8125 -1.77373,1.77373 -3.70817,1.42846 -9.8125,-1.78125 -3.025,-1.59057 -7.525,-3.1944 -10,-3.5625 -5.93998,-0.88344 -8.84589,-2.82346 -10.65625,-7.15625 -2.03155,-4.86219 -0.49759,-6.26132 7.21875,-6.5625 0.61863,-0.0241 1.17436,-0.0323 1.71875,-0.0312 z m -67.84375,11.3125 c 4.52118,0 8.73014,2.0851 10.90625,5.40625 0.90668,1.38377 1.65625,2.71368 1.65625,2.96875 0,1.2925 -3.40119,3.62 -5.3125,3.625 -4.09167,0.0105 -9.52453,2.03847 -14.375,5.375 -6.70166,4.60993 -11.97343,0.68018 -18.91518,-1.09821 -7.46009,-1.91119 -9.38342,-0.42978 -18.08036,7.02678 -4.74154,4.0653 -6.67955,5.84229 -9.5,5.83929 -4.44501,-0.005 -5.22601,0.41275 -10.12946,-5.23661 -2.10503,-2.42526 -4.95385,-5.58423 -6.3125,-7.03125 -2.27653,-2.42461 -2.33581,-2.75794 -0.84375,-4.25 0.98311,-0.98311 3.26827,-1.625 5.84375,-1.625 3.41434,0 4.82536,0.59832 7.15625,3.03125 5.81129,6.06567 14.58378,6.1436 15.78125,0.15625 1.28936,-6.4468 6.63752,-7.88964 15.21875,-4.09375 6.56387,2.90351 13.01081,2.21706 16.21875,-1.75 6.38018,-7.88998 6.95788,-8.34375 10.6875,-8.34375 z m 40.75,21.34821 c -5.99495,-0.0894 -13.84454,0.51182 -25.86607,6.21429 -11.87099,5.63108 -11.89111,13.4375 -7.97768,13.4375 2.37777,0 4.45906,3.31141 7.1875,11.5 4.54197,13.63139 9.2904,20.65959 16.75,24.75 4.31575,2.36651 8.68015,2.20871 20.34375,-0.75 15.63871,-3.96709 22.85097,-7.91128 32.3125,-17.65625 8.09327,-8.33573 12.51265,-15.25143 11.875,-18.5625 -0.65728,-3.41298 -9.0017,-8.62594 -32.77679,-13.90625 -11.98372,-2.66151 -17.18547,-4.95723 -21.84821,-5.02679 z m -59.60946,22.74253 c -4.11552,1.84058 -7.82746,5.12628 -8.35929,6.72176 -0.48909,1.46726 10.80069,13.37715 16.28125,17.1875 2.26295,1.57331 5.47604,5.31151 7.40625,8.625 1.87651,3.2213 5.13516,8.575 7.21875,11.875 4.96329,7.86086 6.59968,12.01296 7.4375,18.59375 0.37937,2.97981 1.18522,6.03126 1.78125,6.78125 1.32534,1.6677 10.37726,0.85818 12.25,-1.09375 0.89521,-0.93308 1.04751,-4.06426 0.5625,-11.6875 l 3.62946,-14.72321 -6.62053,-6.125 c -3.762,-1.26309 -6.9325,-7.4611 -10.47322,-12.8884 -1.25585,-1.925 -3.23704,-8.09285 -5.28571,-14.14285 -2.04867,-6.05 -3.39189,-6.53048 -4.63673,-7.06803 -1.05407,-0.45517 -7.27525,-6.04823 -8.83202,-6.04823 -1.55678,0 -3.29194,1.34164 -6.51269,1.99984 -0.57738,0.118 -2.78627,0.62413 -5.84677,1.99287 z"
       style="fill:none;fill-opacity:1;stroke:#000000;stroke-opacity:1;stroke-width:4.99999981000000027;stroke-miterlimit:4;stroke-dasharray:none;opacity:0.43;filter:url(#filter5418)"
       mask="url(#mask5346)" />
  </g>
</svg>
